<?xml version="1.0" standalone="no"?><!DOCTYPE svg PUBLIC "-//W3C//DTD SVG 1.1//EN" "http://www.w3.org/Graphics/SVG/1.1/DTD/svg11.dtd"><svg t="1714699597753" class="icon" viewBox="0 0 2380 1024" version="1.1" xmlns="http://www.w3.org/2000/svg" p-id="6927" xmlns:xlink="http://www.w3.org/1999/xlink" width="464.84375" height="200"><path d="M512 0h1356.8a512 512 0 0 1 512 512 512 512 0 0 1-512 512H512A512 512 0 0 1 0 512 512 512 0 0 1 512 0z" fill="#3A75FF" opacity=".2" p-id="6928"></path><path d="M512 102.4h1356.8a409.6 409.6 0 0 1 409.6 409.6 409.6 409.6 0 0 1-409.6 409.6H512A409.6 409.6 0 0 1 102.4 512 409.6 409.6 0 0 1 512 102.4z" fill="#3A75FF" opacity=".9" p-id="6929"></path></svg>