<?xml version="1.0" standalone="no"?><!DOCTYPE svg PUBLIC "-//W3C//DTD SVG 1.1//EN" "http://www.w3.org/Graphics/SVG/1.1/DTD/svg11.dtd"><svg t="1714702830247" class="icon" viewBox="0 0 1024 1024" version="1.1" xmlns="http://www.w3.org/2000/svg" p-id="1186" xmlns:xlink="http://www.w3.org/1999/xlink" width="200" height="200"><path d="M780.007475 65.22349 243.903497 65.22349c-98.642624 0-178.61298 80.101339-178.61298 178.744987l0 536.105001c0 98.730629 79.969333 178.700985 178.61298 178.700985l536.105001 0c98.728582 0 178.700985-79.969333 178.700985-178.700985L958.709483 243.968477C958.70846 145.32483 878.73708 65.22349 780.007475 65.22349zM869.44546 735.397976c0 73.994248-60.119239 134.069485-134.113487 134.069485L288.667004 869.467461c-74.082252 0-134.071532-60.075237-134.071532-134.069485L154.595472 288.599977c0-73.994248 59.989279-133.939525 134.071532-133.939525l446.664969 0c73.994248 0 134.113487 59.945277 134.113487 133.939525L869.44546 735.397976zM333.254501 512.020466l62.561871-67.056232 250.602571 268.13897-62.60792 67.056232L333.254501 512.020466zM458.553229 512.020466l-62.73788-67.056232 187.994652-200.995757 62.60792 67.01223L458.553229 512.020466z" p-id="1187"></path></svg>