<?xml version="1.0" standalone="no"?><!DOCTYPE svg PUBLIC "-//W3C//DTD SVG 1.1//EN" "http://www.w3.org/Graphics/SVG/1.1/DTD/svg11.dtd"><svg t="1714702828305" class="icon" viewBox="0 0 1024 1024" version="1.1" xmlns="http://www.w3.org/2000/svg" p-id="1024" xmlns:xlink="http://www.w3.org/1999/xlink" width="200" height="200"><path d="M628.050598 444.964234l-62.622246 67.039859L377.580033 310.980707l62.605873-67.01223L628.050598 444.964234zM958.70846 243.968477l0 536.105001c0 98.730629-79.971379 178.700985-178.700985 178.700985L243.903497 958.774463c-98.642624 0-178.61298-79.969333-178.61298-178.700985L65.290517 243.968477c0-98.642624 79.969333-178.744987 178.61298-178.744987l536.105001 0C878.73708 65.22349 958.70846 145.32483 958.70846 243.968477zM869.401458 288.599977c0-73.994248-60.075237-133.939525-134.069485-133.939525L288.578999 154.660452c-74.03825 0-134.027529 59.945277-134.027529 133.939525l0 446.797999c0 73.994248 59.989279 134.069485 134.027529 134.069485l446.752973 0c73.994248 0 134.069485-60.075237 134.069485-134.069485L869.401458 288.599977zM565.442678 512.020466l-0.01535-0.016373L377.580033 713.103204l62.605873 67.056232 250.470565-268.13897-62.605873-67.056232L565.442678 512.020466z" p-id="1025"></path></svg>