<?xml version="1.0" standalone="no"?><!DOCTYPE svg PUBLIC "-//W3C//DTD SVG 1.1//EN" "http://www.w3.org/Graphics/SVG/1.1/DTD/svg11.dtd"><svg t="1714702826032" class="icon" viewBox="0 0 1024 1024" version="1.1" xmlns="http://www.w3.org/2000/svg" p-id="862" xmlns:xlink="http://www.w3.org/1999/xlink" width="200" height="200"><path d="M243.903497 583.746044l201.039759-187.864692 67.01223 62.651922L310.915727 646.351917 243.903497 583.746044zM444.943256 395.881352l268.137946 250.470565 67.01223-62.605873L511.955486 333.275479 444.943256 395.881352zM958.70846 243.968477l0 536.105001c0 98.730629-79.971379 178.700985-178.700985 178.700985L243.903497 958.774463c-98.642624 0-178.61298-79.969333-178.61298-178.700985L65.290517 243.968477c0-98.642624 79.969333-178.744987 178.61298-178.744987l536.105001 0C878.73708 65.22349 958.70846 145.32483 958.70846 243.968477zM869.44546 288.599977c0-73.994248-60.119239-133.939525-134.113487-133.939525L288.578999 154.660452c-73.994248 0-133.983527 59.945277-133.983527 133.939525l0 446.797999c0 73.994248 59.989279 134.069485 133.983527 134.069485l446.752973 0c73.994248 0 134.113487-60.075237 134.113487-134.069485L869.44546 288.599977z" p-id="863"></path></svg>